<?xml version="1.0" encoding="UTF-8"?>
<svg id="Layer_2" data-name="Layer 2" xmlns="http://www.w3.org/2000/svg" width="213.794" height="243.164" xmlns:xlink="http://www.w3.org/1999/xlink" viewBox="0 0 213.794 243.164">
  <defs>
    <clipPath id="clippath">
      <path d="M8.057,98.207v136.956h151.215V98.207H8.057ZM58.357,125.439c-.511.202-1.02.408-1.527.618l-.136.057c-1.089.471-2.084.916-3.074,1.374-.449.208-.894.424-1.338.639l-.499.242h-.059c-.107-.793-.203-1.584-.303-2.363-.833-6.534-1.03-13.161-1.118-19.752,6.282-2.419,12.303-4.178,18.33-5.355-.018,5.292.032,10.585.222,15.873.061,1.683.135,3.367.233,5.049-3.539.982-7.143,2.192-10.731,3.618Z" fill="none" stroke-width="0"/>
    </clipPath>
    <clipPath id="clippath-1">
      <path d="M64.794,80.395v99.992h73.817v-99.992h-73.817ZM129.284,141.749l-1.622,5.137c-7.024,1.538-14.054,3.061-21.111,4.442l5.895-18.811c4.184-.897,8.366-1.805,12.546-2.722-.212-.173-.425-.345-.639-.516-1.055-.777-2.112-1.548-3.209-2.267-1.901-1.247-3.877-2.379-5.908-3.399l3.107-9.917.266-.836c.359-1.122.731-2.281.954-3.42l.051.003.119-.169c3.317,1.923,6.483,4.114,9.467,6.587,2.236,1.853,4.325,3.9,6.289,6.066-2.041,6.634-4.155,13.33-6.206,19.823Z" fill="none" stroke-width="0"/>
    </clipPath>
  </defs>
  <g id="Layer_1-2" data-name="Layer 1">
    <g>
      <path d="M25.147,243.164c-6.178,0-15.298-9.327-15.508-9.589-1.291-1.615-2.976-2.912-4.038-4.754-3.087-5.354-3.079-12.006.02-17.359l6.656-11.488C2.987,187.16-1.489,169.941.442,153.314c2.295-19.762,13.048-36.776,30.279-47.907l.595-.385.627-.331c2.761-1.455,5.534-2.809,8.308-4.057-.08-19.537.907-40.668,1.264-43.706,2.637-22.434,20.519-40.162,43.486-43.112,7.475-.96,21.345-3.373,36.029-5.927C146.252,3.504,163.392.59,171.534.081c.86-.054,1.722-.081,2.56-.081,9.314,0,15.401,3.877,20.21,6.872,15.47,9.635,18.449,26.588,19.083,33.185l.069.72c.446,4.518.453,57.089.008,61.818-.821,8.723-3.646,16.973-8.127,23.979l5.546,11.657c2.704,5.683,2.315,12.248-1.041,17.561-3.367,5.331-9.128,8.514-15.408,8.514h-.002c-2.387,0-4.723-.463-6.943-1.376l-.295-.121-.29-.133c-6.257-2.869-15.134-6.763-21.972-9.522,4.273,16.477,2.79,33.777-4.773,48.203-6.862,13.089-24.763,35.046-67.539,35.046-9.933,0-20.705-1.232-32.08-3.666l-30.106,9.604c-1.717.547-3.495.824-5.287.824Z" fill="#fff" stroke-width="0"/>
      <g>
        <g>
          <g>
            <path d="M40.893,119.313c-13.12,8.534-22.872,21.807-25.476,37.413-2.273,13.626.019,28.115,7.379,39.934,1.735,2.786,3.762,5.446,6.021,7.828.486.512.979,1.034,1.509,1.502.348.308.407.757-.301-.392-.051-.084-.511-1.411-.26-.481-.173-.643-.163-1.184-.012-1.845-.15.658-.295.082.228-.461-.207.215-.345.595-.493.851-2.411,4.161-4.822,8.323-7.234,12.484l-3.009,5.193c-.203.35-.397.69-.57,1.055-1.073,2.269-1.207,4.967.163,7.174,1.347,2.17,3.82,3.673,6.415,3.592,1.367-.043,2.552-.482,3.826-.888l5.524-1.762c8.748-2.791,17.495-5.581,26.243-8.372l.57-.182h-3.19c12.633,2.996,25.756,4.915,38.767,4.352,10.329-.447,20.466-2.457,29.892-6.761,7.158-3.268,13.806-8.174,18.739-14.333,4.893-6.108,8.468-13.122,10.225-20.777,1.782-7.765,1.81-15.642.538-23.478-1.216-7.491-3.934-14.805-7.667-21.401-3.853-6.807-8.973-13.055-15-18.05-6.769-5.609-14.425-9.859-22.825-12.498-8.877-2.789-18.443-3.667-27.7-2.88-11.857,1.008-23.145,4.37-34,9.161-2.814,1.242-5.579,2.591-8.302,4.022-2.782,1.463-3.854,5.57-2.153,8.209,1.826,2.832,5.233,3.717,8.209,2.153,2.058-1.082,4.141-2.118,6.251-3.094.998-.462,2.001-.911,3.01-1.346.06-.026.709-.321.717-.307-.014-.023-1.583.662-.48.206.512-.212,1.026-.42,1.54-.625,3.835-1.523,7.752-2.844,11.739-3.91,1.827-.489,3.669-.924,5.522-1.301,1.809-.367,3.672-.536,5.47-.931-.275.06-1.737.224-.752.104.21-.026.42-.052.63-.077.486-.057.973-.11,1.46-.159.857-.085,1.715-.157,2.575-.214,1.706-.113,3.415-.17,5.124-.165,1.619.004,3.238.063,4.853.179.82.059,1.639.132,2.456.221.373.04.745.086,1.118.131.963.115-.672-.073-.856-.117.207.05.432.06.643.091,3.006.442,5.982,1.094,8.893,1.964,1.419.424,2.823.899,4.208,1.425.322.122.642.247.962.375.159.064.318.129.477.193.923.373-.46-.178-.723-.309.658.326,1.352.589,2.017.901,2.54,1.192,4.995,2.564,7.341,4.103,1.163.763,2.282,1.582,3.401,2.407.642.473-1.322-1.039-.7-.542.127.101.255.2.382.301.275.218.548.438.819.661.54.444,1.072.897,1.596,1.359,2.013,1.777,3.907,3.69,5.665,5.72.431.498.854,1.003,1.269,1.514.199.245.394.493.59.739.598.752-.384-.446-.504-.655.089.154.226.296.333.438.785,1.044,1.537,2.112,2.254,3.204,1.449,2.206,2.755,4.506,3.908,6.881.28.578.552,1.159.814,1.746.126.281.245.564.37.845.321.721-.661-1.599-.365-.868.067.166.137.331.205.496.49,1.203.941,2.423,1.353,3.655.807,2.417,1.461,4.886,1.951,7.387.125.639.239,1.279.343,1.922.048.296.091.592.136.888.182,1.198-.227-1.837-.064-.484.151,1.257.271,2.516.343,3.78.14,2.479.112,4.967-.095,7.441-.053.633-.121,1.263-.194,1.894-.153,1.326.231-1.584.081-.581-.047.313-.092.626-.142.938-.197,1.222-.44,2.438-.73,3.642-.575,2.392-1.38,4.683-2.266,6.974-.144.373.732-1.695.378-.897-.059.133-.116.267-.175.4-.128.289-.258.576-.392.862-.268.573-.548,1.14-.84,1.701-.564,1.084-1.173,2.144-1.826,3.177-.673,1.066-1.402,2.089-2.152,3.101-.519.701.824-1.045.574-.742-.095.115-.185.235-.278.352-.203.254-.408.506-.616.755-.419.502-.85.994-1.291,1.477-.879.961-1.8,1.883-2.759,2.764-.478.439-.966.868-1.463,1.287-.241.203-.484.403-.728.601-.123.099-.248.197-.371.296-.765.618.864-.655.65-.499-2.271,1.652-4.575,3.193-7.065,4.503-1.284.676-2.602,1.266-3.922,1.866-.356.162,1.65-.681.777-.329-.166.067-.331.136-.497.203-.391.157-.783.311-1.177.459-.716.271-1.437.527-2.162.771-3.112,1.044-6.304,1.84-9.532,2.427-.885.161-1.773.306-2.663.437-.209.031-.418.058-.627.089-.396.06,1.774-.227.752-.102-.462.057-.924.114-1.387.166-1.879.209-3.764.355-5.653.446-4.064.195-8.139.133-12.198-.13-2.229-.145-4.455-.351-6.674-.61-.541-.063-1.081-.131-1.621-.199-1.125-.141.906.127.503.07-.321-.046-.642-.089-.962-.134-1.213-.174-2.424-.362-3.632-.565-2.425-.407-4.84-.87-7.244-1.384-2.419-.516-5.157-1.553-7.59-.888-5.938,1.622-11.782,3.759-17.645,5.629-3.657,1.167-7.314,2.333-10.97,3.5l-3.755,1.198c-.53.169-1.16.28-1.659.529-.008.004-.018.004-.026.008-.002.001,4.461,1.206,4.463,1.207.002.002.725,5.638.728,5.634.036-.045.054-.104.087-.151.209-.296.371-.641.553-.955l2.293-3.958,6.004-10.362,1.943-3.353c1.585-2.736,2.04-5.845.788-8.81-1.115-2.642-3.582-4.466-5.38-6.653-.162-.198-.32-.4-.482-.598-.214-.262.955,1.264.233.297-.335-.45-.662-.906-.979-1.369-.618-.9-1.201-1.823-1.751-2.766-.558-.957-1.081-1.935-1.57-2.929-.257-.523-.504-1.05-.742-1.582-.1-.223-.284-.502-.325-.743-.024-.14.568,1.394.343.808-.065-.169-.137-.335-.204-.504-.85-2.13-1.553-4.318-2.11-6.543-.294-1.176-.548-2.362-.76-3.555-.099-.555-.174-1.114-.27-1.669-.068-.393.197,1.611.064.474-.038-.328-.078-.657-.113-.986-.253-2.419-.338-4.855-.253-7.286.042-1.205.126-2.409.252-3.609.031-.289.067-.578.099-.867.113-1.022-.22,1.456-.059.439.107-.674.211-1.349.337-2.02.456-2.425,1.09-4.816,1.903-7.146.198-.567.406-1.13.624-1.689.093-.238.596-1.443.152-.401-.43,1.008.071-.153.18-.395.523-1.163,1.092-2.304,1.706-3.422.625-1.137,1.295-2.249,2.009-3.332.348-.528.707-1.049,1.075-1.562.217-.302.448-.595.661-.899.365-.522-.504.639-.451.578.139-.163.265-.338.399-.506,1.656-2.071,3.48-4.006,5.44-5.793.508-.464,1.026-.917,1.552-1.361.311-.262.625-.521.942-.776.178-.143,1.134-.895.362-.293s.203-.144.388-.28c.29-.213.582-.423.875-.63.646-.456,1.303-.896,1.966-1.328,2.628-1.709,3.966-5.396,2.153-8.209-1.692-2.625-5.395-3.983-8.209-2.153Z" fill="#694fa3" stroke-width="0"/>
            <path d="M36.375,113.666c-13.12,8.534-22.872,21.807-25.476,37.413-2.273,13.626.019,28.115,7.379,39.934,1.735,2.786,3.762,5.446,6.021,7.828.486.512.979,1.034,1.509,1.502.348.308.407.757-.301-.392-.051-.084-.511-1.411-.26-.481-.173-.643-.163-1.184-.012-1.845-.15.658-.295.082.228-.461-.207.215-.345.595-.493.851l-7.234,12.484-3.009,5.193c-.203.35-.397.69-.57,1.055-1.073,2.269-1.207,4.967.163,7.174,1.347,2.17,3.82,3.673,6.415,3.592,1.367-.043,2.552-.482,3.826-.888l5.524-1.762c8.748-2.791,17.495-5.581,26.243-8.372l.57-.182h-3.19c12.633,2.996,25.756,4.915,38.767,4.352,10.329-.447,20.466-2.457,29.892-6.761,7.158-3.268,13.806-8.174,18.739-14.333,4.893-6.108,8.468-13.122,10.225-20.777,1.782-7.765,1.81-15.642.538-23.478-1.216-7.491-3.934-14.805-7.667-21.401-3.853-6.807-8.973-13.055-15-18.05-6.769-5.609-14.425-9.859-22.825-12.498-8.877-2.789-18.443-3.667-27.7-2.88-11.857,1.008-23.145,4.37-34,9.161-2.814,1.242-5.579,2.591-8.302,4.022-2.782,1.463-3.854,5.57-2.153,8.209,1.826,2.832,5.233,3.717,8.209,2.153,2.058-1.082,4.141-2.118,6.251-3.094.998-.462,2.001-.911,3.01-1.346.06-.026.709-.321.717-.307-.014-.023-1.583.662-.48.206.512-.212,1.026-.42,1.54-.625,3.835-1.523,7.752-2.844,11.739-3.91,1.827-.489,3.669-.924,5.522-1.301,1.809-.367,3.672-.536,5.47-.931-.275.06-1.737.224-.752.104.21-.026.42-.052.63-.077.486-.057.973-.11,1.46-.159.857-.085,1.715-.157,2.575-.214,1.706-.113,3.415-.17,5.124-.165,1.619.004,3.238.063,4.853.179.82.059,1.639.132,2.456.221.373.04.745.086,1.118.131.963.115-.672-.073-.856-.117.207.05.432.06.643.091,3.006.442,5.982,1.094,8.893,1.964,1.419.424,2.823.899,4.208,1.425.322.122.642.247.962.375.159.064.318.129.477.193.923.373-.46-.178-.723-.309.658.326,1.352.589,2.017.901,2.54,1.192,4.995,2.564,7.341,4.103,1.163.763,2.282,1.582,3.401,2.407.642.473-1.322-1.039-.7-.542.127.101.255.2.382.301.275.218.548.438.819.661.54.444,1.072.897,1.596,1.359,2.013,1.777,3.907,3.69,5.665,5.72.431.498.854,1.003,1.269,1.514.199.245.394.493.59.739.598.752-.384-.446-.504-.655.089.154.226.296.333.438.785,1.044,1.537,2.112,2.254,3.204,1.449,2.206,2.755,4.506,3.908,6.881.28.578.552,1.159.814,1.746.126.281.245.564.37.845.321.721-.661-1.599-.365-.868.067.166.137.331.205.496.49,1.203.941,2.423,1.353,3.655.807,2.417,1.461,4.886,1.951,7.387.125.639.239,1.279.343,1.922.048.296.091.592.136.888.182,1.198-.227-1.837-.064-.484.151,1.257.271,2.516.343,3.78.14,2.479.112,4.967-.095,7.441-.053.633-.121,1.263-.194,1.894-.153,1.326.231-1.584.081-.581-.047.313-.092.626-.142.938-.197,1.222-.44,2.438-.73,3.642-.575,2.392-1.38,4.683-2.266,6.974-.144.373.732-1.695.378-.897-.059.133-.116.267-.175.4-.128.289-.258.576-.392.862-.268.573-.548,1.14-.84,1.701-.564,1.084-1.173,2.144-1.826,3.177-.673,1.066-1.402,2.089-2.152,3.101-.519.701.824-1.045.574-.742-.095.115-.185.235-.278.352-.203.254-.408.506-.616.755-.419.502-.85.994-1.291,1.477-.879.961-1.8,1.883-2.759,2.764-.478.439-.966.868-1.463,1.287-.241.203-.484.403-.728.601-.123.099-.248.197-.371.296-.765.618.864-.655.65-.499-2.271,1.652-4.575,3.193-7.065,4.503-1.284.676-2.602,1.266-3.922,1.866-.356.162,1.65-.681.777-.329-.166.067-.331.136-.497.203-.391.157-.783.311-1.177.459-.716.271-1.437.527-2.162.771-3.112,1.044-6.304,1.84-9.532,2.427-.885.161-1.773.306-2.663.437-.209.031-.418.058-.627.089-.396.06,1.774-.227.752-.102-.462.057-.924.114-1.387.166-1.879.209-3.764.355-5.653.446-4.064.195-8.139.133-12.198-.13-2.229-.145-4.455-.351-6.674-.61-.541-.063-1.081-.131-1.621-.199-1.125-.141.906.127.503.07-.321-.046-.642-.089-.962-.134-1.213-.174-2.424-.362-3.632-.565-2.425-.407-4.84-.87-7.244-1.384-2.419-.516-5.157-1.553-7.59-.888-5.938,1.622-11.782,3.759-17.645,5.629l-10.97,3.5-3.755,1.198c-.53.169-1.16.28-1.659.529-.008.004-.018.004-.026.008-.002.001,4.461,1.206,4.463,1.207.002.002.725,5.638.728,5.634.036-.045.054-.104.087-.151.209-.296.371-.641.553-.955l2.293-3.958,6.004-10.362,1.943-3.353c1.585-2.736,2.04-5.845.788-8.81-1.115-2.642-3.582-4.466-5.38-6.653-.162-.198-.32-.4-.482-.598-.214-.262.955,1.264.233.297-.335-.45-.662-.906-.979-1.369-.618-.9-1.201-1.823-1.751-2.766-.558-.957-1.081-1.935-1.57-2.929-.257-.523-.504-1.05-.742-1.582-.1-.223-.284-.502-.325-.743-.024-.14.568,1.394.343.808-.065-.169-.137-.335-.204-.504-.85-2.13-1.553-4.318-2.11-6.543-.294-1.176-.548-2.362-.76-3.555-.099-.555-.174-1.114-.27-1.669-.068-.393.197,1.611.064.474-.038-.328-.078-.657-.113-.986-.253-2.419-.338-4.855-.253-7.286.042-1.205.126-2.409.252-3.609.031-.289.067-.578.099-.867.113-1.022-.22,1.456-.059.439.107-.674.211-1.349.337-2.02.456-2.425,1.09-4.816,1.903-7.146.198-.567.406-1.13.624-1.689.093-.238.596-1.443.152-.401-.43,1.008.071-.153.18-.395.523-1.163,1.092-2.304,1.706-3.422.625-1.137,1.295-2.249,2.009-3.332.348-.528.707-1.049,1.075-1.562.217-.302.448-.595.661-.899.365-.522-.504.639-.451.578.139-.163.265-.338.399-.506,1.656-2.071,3.48-4.006,5.44-5.793.508-.464,1.026-.917,1.552-1.361.311-.262.625-.521.942-.776.178-.143,1.134-.895.362-.293s.203-.144.388-.28c.29-.213.582-.423.875-.63.646-.456,1.303-.896,1.966-1.328,2.628-1.709,3.966-5.396,2.153-8.209-1.692-2.625-5.395-3.983-8.209-2.153Z" fill="#eaddff" stroke-width="0"/>
          </g>
          <g>
            <path d="M85.274,102.838c-3.491,11.141-6.982,22.282-10.473,33.423l-2.395,7.644c-.544,1.735-1.093,3.429-1.357,5.24-1.028,7.034.81,13.744,5.25,19.293,3.455,4.318,8.208,6.622,13.367,8.239s10.298,2.394,15.642.949c6.172-1.669,11.725-5.937,14.784-11.573,2.325-4.284,3.461-9.431,4.91-14.052,3.532-11.272,7.158-22.52,10.598-33.82,1.863-6.12,1.1-12.726-1.849-18.368s-8.191-9.699-14.172-11.626c-4.019-1.295-8.064-2.619-12.357-2.358-6.397.388-12.75,3.171-16.953,8.106-2.275,2.671-3.91,5.557-4.995,8.904-.968,2.987,1.128,6.683,4.191,7.381,3.289.749,6.344-.992,7.381-4.191.109-.335.232-.664.345-.998.409-1.205-.624,1.287-.063.154.254-.513.51-1.02.802-1.513.266-.449.752-.93.931-1.412l-.532.679c.138-.175.28-.348.425-.518.288-.339.59-.667.902-.983.39-.395.809-.754,1.22-1.126.906-.821-1.183.808-.171.123.183-.124.359-.255.543-.378.549-.368,1.118-.705,1.703-1.011.195-.102.392-.201.591-.295,1.47-.702-.906.287.087-.039,1.115-.366,2.229-.599,3.361-.891.787-.203-1.634.141-.437.061.335-.022.668-.056,1.003-.07.676-.028,1.353-.018,2.027.03.58.042,1.34.4-.235-.064.269.079.574.094.851.149.631.126,1.251.289,1.866.476.496.151.989.31,1.483.465l2.344.734c.165.052.331.102.496.155.231.074.456.148.685.229.22.078.438.161.655.248-.896-.387-1.056-.45-.479-.19,1.017.528,1.943,1.157,2.925,1.733-1.404-.824-.543-.433-.161-.107.254.216.502.44.744.67.483.46.918.958,1.365,1.452.787.868-.64-.972-.222-.304.145.232.323.448.476.676.337.503.648,1.023.934,1.557.13.243.254.488.373.736.285.597.171,1.174-.079-.221.111.62.456,1.271.622,1.885.145.536.244,1.078.359,1.621.259,1.221-.117-1.522-.034-.273.022.335.057.668.07,1.003.023.562.021,1.126-.009,1.688-.017.324-.107.698-.083,1.019-.116-1.587.123-.828.011-.234-.286,1.512-.807,2.982-1.266,4.449l-2.26,7.211-6.388,20.387c-1.361,4.344-2.71,8.692-4.084,13.032-.022.069-.043.138-.065.206-.108.336-.232.665-.345.998-.182.536-.446.388.207-.468-.424.557-.665,1.363-1.034,1.973-.147.242-.298.48-.456.714-.288.427-.998,1.01.144-.126-.39.388-.714.862-1.095,1.262-.422.443-.879.841-1.326,1.257-.383.357-.978.518.311-.212-.376.213-.719.52-1.085.756-.463.298-.939.575-1.427.83-.293.153-.593.29-.89.435-.869.425.442-.21.521-.219-.604.069-1.287.46-1.885.622-.638.172-1.323.223-1.95.414,1.568-.476.865-.106.268-.059-.223.018-.446.031-.67.041-.676.028-1.353.019-2.027-.03-.192-.014-.479-.079-.68-.062,1.469-.125.905.137.234.011-.689-.13-1.366-.306-2.036-.51-1.303-.397-2.601-.813-3.9-1.222-.146-.046-.293-.09-.439-.138-.28-.09-.558-.183-.833-.284-.618-.227-.665-.592.304.146-.469-.358-1.162-.56-1.68-.861-.245-.142-.487-.289-.725-.443-.384-.248-1.559-1.265-.156-.042-.843-.735-1.673-1.45-2.412-2.296-.352-.403-.68-1.2.104.185-.159-.28-.394-.54-.574-.809-.368-.549-.705-1.118-1.011-1.703-.153-.293-.29-.593-.435-.89-.239-.49.014-.623.219.521-.112-.625-.454-1.264-.622-1.885-.145-.536-.246-1.078-.359-1.621-.255-1.222.113,1.522.034.273-.021-.335-.056-.668-.07-1.003-.028-.676-.018-1.353.03-2.027.016-.225.055-.455.062-.68-.055,1.776-.105.732-.011.234.134-.708.317-1.401.527-2.089.125-.41.257-.819.385-1.228l1.945-6.206c3.652-11.653,7.303-23.306,10.955-34.959l.252-.803c.939-2.996-1.107-6.678-4.191-7.381-3.264-.743-6.376.983-7.381,4.191Z" fill="#396660" stroke-width="0"/>
            <path d="M81.298,99.438c-3.491,11.141-6.982,22.282-10.473,33.423l-2.395,7.644c-.544,1.735-1.093,3.429-1.357,5.24-1.028,7.034.81,13.744,5.25,19.293,3.455,4.318,8.208,6.622,13.367,8.239s10.298,2.394,15.642.949c6.172-1.669,11.725-5.937,14.784-11.573,2.325-4.284,3.461-9.431,4.91-14.052,3.532-11.272,7.158-22.52,10.598-33.82,1.863-6.12,1.1-12.726-1.849-18.368s-8.191-9.699-14.172-11.626c-4.019-1.295-8.064-2.619-12.357-2.358-6.397.388-12.75,3.171-16.953,8.106-2.275,2.671-3.91,5.557-4.995,8.904-.968,2.987,1.128,6.683,4.191,7.381,3.289.749,6.344-.992,7.381-4.191.109-.335.232-.664.345-.998.409-1.205-.624,1.287-.063.154.254-.513.51-1.02.802-1.513.266-.449.752-.93.931-1.412l-.532.679c.138-.175.28-.348.425-.518.288-.339.59-.667.902-.983.39-.395.809-.754,1.22-1.126.906-.821-1.183.808-.171.123.183-.124.359-.255.543-.378.549-.368,1.118-.705,1.703-1.011.195-.102.392-.201.591-.295,1.47-.702-.906.287.087-.039,1.115-.366,2.229-.599,3.361-.891.787-.203-1.634.141-.437.061.335-.022.668-.056,1.003-.07.676-.028,1.353-.018,2.027.03.58.042,1.34.4-.235-.064.269.079.574.094.851.149.631.126,1.251.289,1.866.476.496.151.989.31,1.483.465l2.344.734c.165.052.331.102.496.155.231.074.456.148.685.229.22.078.438.161.655.248-.896-.387-1.056-.45-.479-.19,1.017.528,1.943,1.157,2.925,1.733-1.404-.824-.543-.433-.161-.107.254.216.502.44.744.67.483.46.918.958,1.365,1.452.787.868-.64-.972-.222-.304.145.232.323.448.476.676.337.503.648,1.023.934,1.557.13.243.254.488.373.736.285.597.171,1.174-.079-.221.111.62.456,1.271.622,1.885.145.536.244,1.078.359,1.621.259,1.221-.117-1.522-.034-.273.022.335.057.668.07,1.003.023.562.021,1.126-.009,1.688-.017.324-.107.698-.083,1.019-.116-1.587.123-.828.011-.234-.286,1.512-.807,2.982-1.266,4.449l-2.26,7.211-6.388,20.387c-1.361,4.344-2.71,8.692-4.084,13.032-.022.069-.043.138-.065.206-.108.336-.232.665-.345.998-.182.536-.446.388.207-.468-.424.557-.665,1.363-1.034,1.973-.147.242-.298.48-.456.714-.288.427-.998,1.01.144-.126-.39.388-.714.862-1.095,1.262-.422.443-.879.841-1.326,1.257-.383.357-.978.518.311-.212-.376.213-.719.52-1.085.756-.463.298-.939.575-1.427.83-.293.153-.593.29-.89.435-.869.425.442-.21.521-.219-.604.069-1.287.46-1.885.622-.638.172-1.323.223-1.95.414,1.568-.476.865-.106.268-.059-.223.018-.446.031-.67.041-.676.028-1.353.019-2.027-.03-.192-.014-.479-.079-.68-.062,1.469-.125.905.137.234.011-.689-.13-1.366-.306-2.036-.51-1.303-.397-2.601-.813-3.9-1.222-.146-.046-.293-.09-.439-.138-.28-.09-.558-.183-.833-.284-.618-.227-.665-.592.304.146-.469-.358-1.162-.56-1.68-.861-.245-.142-.487-.289-.725-.443-.384-.248-1.559-1.265-.156-.042-.843-.735-1.673-1.45-2.412-2.296-.352-.403-.68-1.2.104.185-.159-.28-.394-.54-.574-.809-.368-.549-.705-1.118-1.011-1.703-.153-.293-.29-.593-.435-.89-.239-.49.014-.623.219.521-.112-.625-.454-1.264-.622-1.885-.145-.536-.246-1.078-.359-1.621-.255-1.222.113,1.522.034.273-.021-.335-.056-.668-.07-1.003-.028-.676-.018-1.353.03-2.027.016-.225.055-.455.062-.68-.055,1.776-.105.732-.011.234.134-.708.317-1.401.527-2.089.125-.41.257-.819.385-1.228l1.945-6.206c3.652-11.653,7.303-23.306,10.955-34.959l.252-.803c.939-2.996-1.107-6.678-4.191-7.381-3.264-.743-6.376.983-7.381,4.191Z" fill="#bcece4" stroke-width="0"/>
          </g>
        </g>
        <g>
          <path d="M193.19,124.528l-.141-.356c.133.577.112,1.149-.064,1.714-.06.188-1.374,1.877-.568,1.053.55-.562,1.06-1.171,1.554-1.781,1.23-1.519,2.415-3.083,3.438-4.75,1.786-2.91,3.186-6.122,4.222-9.372,1.189-3.733,1.867-7.692,1.977-11.611.167-5.933.15-11.874.169-17.809.026-8.037.022-16.074-.018-24.11-.025-4.933.117-9.921-.202-14.847-.445-6.872-1.482-14.532-5.702-20.207-3.12-4.197-7.518-7.181-12.752-8.009-3.828-.605-7.475-.341-11.282.129-18.122,2.234-36.099,5.73-54.084,8.84-8.176,1.414-16.355,2.849-24.567,4.041-.705.102-1.41.2-2.115.298-.909.126,1.779-.234.881-.119-.172.022-.343.044-.515.067-1.164.153-2.33.297-3.485.51-3.076.568-5.975,1.597-8.838,2.838-5.11,2.215-9.849,5.614-13.552,9.78-6.052,6.809-9.391,15.169-9.918,24.228-.337,5.793-.533,11.596-.698,17.396-.238,8.415-.365,16.835-.277,25.253.078,7.432.208,14.932,1.149,22.314.345,2.706.633,5.546,1.581,8.128,2.081,5.669,6.309,10.528,11.856,13.018,9.095,4.082,18.914,3.171,28.431,1.466,10.782-1.931,21.486-4.322,32.185-6.66,6.191-1.353,12.379-2.719,18.569-4.074,1.387-.304,2.772-.627,4.163-.909.741-.15,1.489-.263,2.235-.38l.442-.069c.686-.1.575-.089-.333.035.153-.18,1.275-.132,1.524-.144.339-.016.675,0,1.013-.006,1.121-.023-1.215-.343-.568-.076.304.126.662.182.979.278.791.24,1.575.503,2.355.776,4.056,1.415,8.034,3.058,11.994,4.721,1.439.605-1.243-.528.217.092.546.232,1.091.464,1.636.698,1.061.455,2.121.913,3.18,1.374,1.815.79,3.627,1.588,5.436,2.394,1.941.864,3.872,1.75,5.811,2.617,2.021.904,4.059,1.322,6.246.668,2.812-.841,4.94-3.16,5.666-5.981,1.002-3.891-1.668-7.719-3.284-11.116-2.184-4.59-4.368-9.181-6.551-13.771-1.352-2.842-5.645-3.806-8.209-2.153-2.921,1.883-3.599,5.169-2.153,8.209,2.229,4.685,4.457,9.369,6.686,14.054.521,1.095,1.041,2.189,1.562,3.284.141.297.275.598.424.891l.177.372c-.287-.52-.425-1.079-.414-1.677-.001-2.477,2.401-4.314,4.841-3.622,1.657.47,1.325.598.773.346-.348-.159-.697-.317-1.046-.476-7.246-3.285-14.54-6.478-21.911-9.471-3.451-1.402-6.93-2.821-10.507-3.878-3.367-.995-6.702-.336-10.087.207-3.012.483-5.993,1.253-8.972,1.907-11.563,2.538-23.12,5.114-34.714,7.511-4.511.933-9.028,1.847-13.567,2.638-.85.148-1.701.292-2.553.426-.413.065-.826.129-1.24.189-.129.019-.259.037-.388.056-1.251.183,1.575-.198.682-.091-1.698.203-3.391.307-5.103.321-1.179.01-2.358-.02-3.534-.102-.689-.048-1.375-.157-2.063-.202,2.09.138-.218-.065-.74-.174-1.179-.245-2.344-.565-3.474-.982-.495-.182-1.215-.723.24.124-.226-.132-.488-.222-.724-.338-.618-.304-1.22-.64-1.799-1.012-.223-.143-.437-.299-.657-.445-.507-.335-.53-.752.327.263-.402-.476-.983-.855-1.421-1.31-.151-.157-.3-.318-.445-.481-.365-.411-.654-1.172.095.185-.329-.595-.798-1.13-1.143-1.722-.368-.632-.648-1.301-.987-1.946,1.085,2.059.566,1.427.376.858-.153-.459-.3-.916-.423-1.384-.296-1.133-.505-2.288-.683-3.445-.045-.291-.083-.583-.127-.874.374,2.461.129.974.059.397-.092-.758-.173-1.517-.246-2.277-.335-3.491-.517-6.996-.643-10.5-.299-8.29-.273-16.593-.137-24.886.116-7.064.323-14.127.631-21.185.091-2.097.187-4.194.318-6.289.031-.49.084-.982.107-1.472.031-.675-.262,1.606-.056.389.1-.589.195-1.177.317-1.762.288-1.378.666-2.737,1.133-4.066.19-.542.449-1.075.62-1.621-.512,1.642-.243.584-.05.169.145-.312.295-.621.45-.928.565-1.119,1.195-2.206,1.886-3.252.369-.559.85-1.088,1.177-1.668-.723,1.286-.526.673-.206.278.178-.22.359-.438.542-.653.881-1.032,1.824-2.011,2.822-2.93.416-.383.841-.756,1.275-1.118.258-.215.547-.411.791-.64-1.245,1.168-.493.384-.13.121,1.102-.798,2.252-1.53,3.439-2.194.984-.55,2.104-.931,3.056-1.519-1.375.847-.66.273-.168.08.319-.125.64-.246.963-.362.647-.232,1.301-.446,1.961-.64,1.216-.358,2.452-.65,3.7-.874.334-.06.703-.079,1.029-.169-1.326.366-1.093.144-.649.086.856-.113,1.712-.227,2.568-.344,1.482-.202,2.961-.419,4.44-.644,3.876-.589,7.745-1.228,11.612-1.878,18.107-3.044,36.16-6.433,54.311-9.203,1.771-.27,3.544-.533,5.318-.779.314-.044,1.855-.252.489-.069-1.354.182.118-.014.431-.054.754-.097,1.508-.19,2.262-.276,1.137-.13,2.277-.25,3.419-.33,1.039-.073,2.081-.101,3.122-.045.317.017.633.05.949.073,1.194.086-1.54-.282-.391-.054.563.112,1.123.216,1.676.37.435.121.857.273,1.283.419,1.015.35-1.424-.677-.478-.202.226.113.454.22.676.339.361.194.712.405,1.053.632.194.129.385.307.589.416-1.499-.804-.873-.693-.389-.265.616.545,1.096,1.194,1.672,1.77-1.462-1.461-.375-.482-.006.096.247.387.477.784.693,1.189s.402.824.603,1.237c.199.41.221.942-.335-.801.069.216.171.427.25.64.319.853.589,1.724.821,2.605.408,1.552.657,3.122.915,4.702-.418-2.561-.007.036.068.755.073.691.14,1.383.204,2.075.051.549.078,1.097.095,1.648.068,2.164.086,4.329.108,6.494.073,7.242.086,14.485.086,21.728s-.013,14.542-.09,21.812c-.022,2.089-.038,4.179-.111,6.267-.009.262-.017.524-.034.785-.005.081-.01.163-.016.244-.012.162-.031.327-.047.486-.028.272-.059.544-.093.815.118-.851.143-1.045.075-.582-.24,1.403-.495,2.796-.855,4.175-.203.778-.432,1.55-.684,2.314-.124.375-.506,2.09-.825,2.252l.299-.698c-.104.244-.212.486-.321.727-.137.301-.279.6-.424.897-.319.652-.657,1.294-1.015,1.925-.325.572-.666,1.134-1.023,1.687-.26.403-.906,1.778-1.352,1.938l.457-.591c-.122.155-.245.308-.371.46-.208.254-.42.505-.635.752-.759.87-1.645,1.679-2.249,2.671-1.321,2.167-1.81,5.06-.858,7.47.594,1.504,1.312,2.74,2.757,3.586,1.286.753,3.182,1.071,4.623.605,2.821-.913,5.425-4.255,4.191-7.381Z" fill="#4b6709" stroke-width="0"/>
          <path d="M186.809,120.517l-.141-.356c.133.577.112,1.149-.064,1.714-.06.188-1.374,1.877-.568,1.053.55-.562,1.06-1.171,1.554-1.781,1.23-1.519,2.415-3.083,3.438-4.75,1.786-2.91,3.186-6.122,4.222-9.372,1.189-3.733,1.867-7.692,1.977-11.611.167-5.933.15-11.874.169-17.809.026-8.037.022-16.074-.018-24.11-.025-4.933.117-9.921-.202-14.847-.445-6.872-1.482-14.532-5.702-20.207-3.12-4.197-7.518-7.181-12.752-8.009-3.828-.605-7.475-.341-11.282.129-18.122,2.234-36.099,5.73-54.084,8.84-8.176,1.414-16.355,2.849-24.567,4.041-.705.102-1.41.2-2.115.298-.909.126,1.779-.234.881-.119-.172.022-.343.044-.515.067-1.164.153-2.33.297-3.485.51-3.076.568-5.975,1.597-8.838,2.838-5.11,2.215-9.849,5.614-13.552,9.78-6.052,6.809-9.391,15.169-9.918,24.228-.337,5.793-.533,11.596-.698,17.396-.238,8.415-.365,16.835-.277,25.253.078,7.432.208,14.932,1.149,22.314.345,2.706.633,5.546,1.581,8.128,2.081,5.669,6.309,10.528,11.856,13.018,9.095,4.082,18.914,3.171,28.431,1.466,10.782-1.931,21.486-4.322,32.185-6.66,6.191-1.353,12.379-2.719,18.569-4.074,1.387-.304,2.772-.627,4.163-.909.741-.15,1.489-.263,2.235-.38l.442-.069c.686-.1.575-.089-.333.035.153-.18,1.275-.132,1.524-.144.339-.016.675,0,1.013-.006,1.121-.023-1.215-.343-.568-.076.304.126.662.182.979.278.791.24,1.575.503,2.355.776,4.056,1.415,8.034,3.058,11.994,4.721,1.439.605-1.243-.528.217.092.546.232,1.091.464,1.636.698,1.061.455,2.121.913,3.18,1.374,1.815.79,3.627,1.588,5.436,2.394,1.941.864,3.872,1.75,5.811,2.617,2.021.904,4.059,1.322,6.246.668,2.812-.841,4.94-3.16,5.666-5.981,1.002-3.891-1.668-7.719-3.284-11.116-2.184-4.59-4.368-9.181-6.551-13.771-1.352-2.842-5.645-3.806-8.209-2.153-2.921,1.883-3.599,5.169-2.153,8.209,2.229,4.685,4.457,9.369,6.686,14.054.521,1.095,1.041,2.189,1.562,3.284.141.297.275.598.424.891l.177.372c-.287-.52-.425-1.079-.414-1.677-.001-2.477,2.401-4.314,4.841-3.622,1.657.47,1.325.598.773.346-.348-.159-.697-.317-1.046-.476-7.246-3.285-14.54-6.478-21.911-9.471-3.451-1.402-6.93-2.821-10.507-3.878-3.367-.995-6.702-.336-10.087.207-3.012.483-5.993,1.253-8.972,1.907-11.563,2.538-23.12,5.114-34.714,7.511-4.511.933-9.028,1.847-13.567,2.638-.85.148-1.701.292-2.553.426-.413.065-.826.129-1.24.189-.129.019-.259.037-.388.056-1.251.183,1.575-.198.682-.091-1.698.203-3.391.307-5.103.321-1.179.01-2.358-.02-3.534-.102-.689-.048-1.375-.157-2.063-.202,2.09.138-.218-.065-.74-.174-1.179-.245-2.344-.565-3.474-.982-.495-.182-1.215-.723.24.124-.226-.132-.488-.222-.724-.338-.618-.304-1.22-.64-1.799-1.012-.223-.143-.437-.299-.657-.445-.507-.335-.53-.752.327.263-.402-.476-.983-.855-1.421-1.31-.151-.157-.3-.318-.445-.481-.365-.411-.654-1.172.095.185-.329-.595-.798-1.13-1.143-1.722-.368-.632-.648-1.301-.987-1.946,1.085,2.059.566,1.427.376.858-.153-.459-.3-.916-.423-1.384-.296-1.133-.505-2.288-.683-3.445-.045-.291-.083-.583-.127-.874.374,2.461.129.974.059.397-.092-.758-.173-1.517-.246-2.277-.335-3.491-.517-6.996-.643-10.5-.299-8.29-.273-16.593-.137-24.886.116-7.064.323-14.127.631-21.185.091-2.097.187-4.194.318-6.289.031-.49.084-.982.107-1.472.031-.675-.262,1.606-.056.389.1-.589.195-1.177.317-1.762.288-1.378.666-2.737,1.133-4.066.19-.542.449-1.075.62-1.621-.512,1.642-.243.584-.05.169.145-.312.295-.621.45-.928.565-1.119,1.195-2.206,1.886-3.252.369-.559.85-1.088,1.177-1.668-.723,1.286-.526.673-.206.278.178-.22.359-.438.542-.653.881-1.032,1.824-2.011,2.822-2.93.416-.383.841-.756,1.275-1.118.258-.215.547-.411.791-.64-1.245,1.168-.493.384-.13.121,1.102-.798,2.252-1.53,3.439-2.194.984-.55,2.104-.931,3.056-1.519-1.375.847-.66.273-.168.08.319-.125.64-.246.963-.362.647-.232,1.301-.446,1.961-.64,1.216-.358,2.452-.65,3.7-.874.334-.06.703-.079,1.029-.169-1.326.366-1.093.144-.649.086.856-.113,1.712-.227,2.568-.344,1.482-.202,2.961-.419,4.44-.644,3.876-.589,7.745-1.228,11.612-1.878,18.107-3.044,36.16-6.433,54.311-9.203,1.771-.27,3.544-.533,5.318-.779.314-.044,1.855-.252.489-.069-1.354.182.118-.014.431-.054.754-.097,1.508-.19,2.262-.276,1.137-.13,2.277-.25,3.419-.33,1.039-.073,2.081-.101,3.122-.045.317.017.633.05.949.073,1.194.086-1.54-.282-.391-.054.563.112,1.123.216,1.676.37.435.121.857.273,1.283.419,1.015.35-1.424-.677-.478-.202.226.113.454.22.676.339.361.194.712.405,1.053.632.194.129.385.307.589.416-1.499-.804-.873-.693-.389-.265.616.545,1.096,1.194,1.672,1.77-1.462-1.461-.375-.482-.006.096.247.387.477.784.693,1.189s.402.824.603,1.237c.199.41.221.942-.335-.801.069.216.171.427.25.64.319.853.589,1.724.821,2.605.408,1.552.657,3.122.915,4.702-.418-2.561-.007.036.068.755.073.691.14,1.383.204,2.075.051.549.078,1.097.095,1.648.068,2.164.086,4.329.108,6.494.073,7.242.086,14.485.086,21.728s-.013,14.542-.09,21.812c-.022,2.089-.038,4.179-.111,6.267-.009.262-.017.524-.034.785-.005.081-.01.163-.016.244-.012.162-.031.327-.047.486-.028.272-.059.544-.093.815.118-.851.143-1.045.075-.582-.24,1.403-.495,2.796-.855,4.175-.203.778-.432,1.55-.684,2.314-.124.375-.506,2.09-.825,2.252l.299-.698c-.104.244-.212.486-.321.727-.137.301-.279.6-.424.897-.319.652-.657,1.294-1.015,1.925-.325.572-.666,1.134-1.023,1.687-.26.403-.906,1.778-1.352,1.938l.457-.591c-.122.155-.245.308-.371.46-.208.254-.42.505-.635.752-.759.87-1.645,1.679-2.249,2.671-1.321,2.167-1.81,5.06-.858,7.47.594,1.504,1.312,2.74,2.757,3.586,1.286.753,3.182,1.071,4.623.605,2.821-.913,5.425-4.255,4.191-7.381Z" fill="#dbf4a7" stroke-width="0"/>
        </g>
        <g clip-path="url(#clippath)">
          <g>
            <path d="M40.893,119.313c-13.12,8.534-22.872,21.807-25.476,37.413-2.273,13.626.019,28.115,7.379,39.934,1.735,2.786,3.762,5.446,6.021,7.828.486.512.979,1.034,1.509,1.502.348.308.407.757-.301-.392-.051-.084-.511-1.411-.26-.481-.173-.643-.163-1.184-.012-1.845-.15.658-.295.082.228-.461-.207.215-.345.595-.493.851-2.411,4.161-4.822,8.323-7.234,12.484l-3.009,5.193c-.203.35-.397.69-.57,1.055-1.073,2.269-1.207,4.967.163,7.174,1.347,2.17,3.82,3.673,6.415,3.592,1.367-.043,2.552-.482,3.826-.888l5.524-1.762c8.748-2.791,17.495-5.581,26.243-8.372l.57-.182h-3.19c12.633,2.996,25.756,4.915,38.767,4.352,10.329-.447,20.466-2.457,29.892-6.761,7.158-3.268,13.806-8.174,18.739-14.333,4.893-6.108,8.468-13.122,10.225-20.777,1.782-7.765,1.81-15.642.538-23.478-1.216-7.491-3.934-14.805-7.667-21.401-3.853-6.807-8.973-13.055-15-18.05-6.769-5.609-14.425-9.859-22.825-12.498-8.877-2.789-18.443-3.667-27.7-2.88-11.857,1.008-23.145,4.37-34,9.161-2.814,1.242-5.579,2.591-8.302,4.022-2.782,1.463-3.854,5.57-2.153,8.209,1.826,2.832,5.233,3.717,8.209,2.153,2.058-1.082,4.141-2.118,6.251-3.094.998-.462,2.001-.911,3.01-1.346.06-.026.709-.321.717-.307-.014-.023-1.583.662-.48.206.512-.212,1.026-.42,1.54-.625,3.835-1.523,7.752-2.844,11.739-3.91,1.827-.489,3.669-.924,5.522-1.301,1.809-.367,3.672-.536,5.47-.931-.275.06-1.737.224-.752.104.21-.026.42-.052.63-.077.486-.057.973-.11,1.46-.159.857-.085,1.715-.157,2.575-.214,1.706-.113,3.415-.17,5.124-.165,1.619.004,3.238.063,4.853.179.82.059,1.639.132,2.456.221.373.04.745.086,1.118.131.963.115-.672-.073-.856-.117.207.05.432.06.643.091,3.006.442,5.982,1.094,8.893,1.964,1.419.424,2.823.899,4.208,1.425.322.122.642.247.962.375.159.064.318.129.477.193.923.373-.46-.178-.723-.309.658.326,1.352.589,2.017.901,2.54,1.192,4.995,2.564,7.341,4.103,1.163.763,2.282,1.582,3.401,2.407.642.473-1.322-1.039-.7-.542.127.101.255.2.382.301.275.218.548.438.819.661.54.444,1.072.897,1.596,1.359,2.013,1.777,3.907,3.69,5.665,5.72.431.498.854,1.003,1.269,1.514.199.245.394.493.59.739.598.752-.384-.446-.504-.655.089.154.226.296.333.438.785,1.044,1.537,2.112,2.254,3.204,1.449,2.206,2.755,4.506,3.908,6.881.28.578.552,1.159.814,1.746.126.281.245.564.37.845.321.721-.661-1.599-.365-.868.067.166.137.331.205.496.49,1.203.941,2.423,1.353,3.655.807,2.417,1.461,4.886,1.951,7.387.125.639.239,1.279.343,1.922.048.296.091.592.136.888.182,1.198-.227-1.837-.064-.484.151,1.257.271,2.516.343,3.78.14,2.479.112,4.967-.095,7.441-.053.633-.121,1.263-.194,1.894-.153,1.326.231-1.584.081-.581-.047.313-.092.626-.142.938-.197,1.222-.44,2.438-.73,3.642-.575,2.392-1.38,4.683-2.266,6.974-.144.373.732-1.695.378-.897-.059.133-.116.267-.175.4-.128.289-.258.576-.392.862-.268.573-.548,1.14-.84,1.701-.564,1.084-1.173,2.144-1.826,3.177-.673,1.066-1.402,2.089-2.152,3.101-.519.701.824-1.045.574-.742-.095.115-.185.235-.278.352-.203.254-.408.506-.616.755-.419.502-.85.994-1.291,1.477-.879.961-1.8,1.883-2.759,2.764-.478.439-.966.868-1.463,1.287-.241.203-.484.403-.728.601-.123.099-.248.197-.371.296-.765.618.864-.655.65-.499-2.271,1.652-4.575,3.193-7.065,4.503-1.284.676-2.602,1.266-3.922,1.866-.356.162,1.65-.681.777-.329-.166.067-.331.136-.497.203-.391.157-.783.311-1.177.459-.716.271-1.437.527-2.162.771-3.112,1.044-6.304,1.84-9.532,2.427-.885.161-1.773.306-2.663.437-.209.031-.418.058-.627.089-.396.06,1.774-.227.752-.102-.462.057-.924.114-1.387.166-1.879.209-3.764.355-5.653.446-4.064.195-8.139.133-12.198-.13-2.229-.145-4.455-.351-6.674-.61-.541-.063-1.081-.131-1.621-.199-1.125-.141.906.127.503.07-.321-.046-.642-.089-.962-.134-1.213-.174-2.424-.362-3.632-.565-2.425-.407-4.84-.87-7.244-1.384-2.419-.516-5.157-1.553-7.59-.888-5.938,1.622-11.782,3.759-17.645,5.629-3.657,1.167-7.314,2.333-10.97,3.5l-3.755,1.198c-.53.169-1.16.28-1.659.529-.008.004-.018.004-.026.008-.002.001,4.461,1.206,4.463,1.207.002.002.725,5.638.728,5.634.036-.045.054-.104.087-.151.209-.296.371-.641.553-.955l2.293-3.958,6.004-10.362,1.943-3.353c1.585-2.736,2.04-5.845.788-8.81-1.115-2.642-3.582-4.466-5.38-6.653-.162-.198-.32-.4-.482-.598-.214-.262.955,1.264.233.297-.335-.45-.662-.906-.979-1.369-.618-.9-1.201-1.823-1.751-2.766-.558-.957-1.081-1.935-1.57-2.929-.257-.523-.504-1.05-.742-1.582-.1-.223-.284-.502-.325-.743-.024-.14.568,1.394.343.808-.065-.169-.137-.335-.204-.504-.85-2.13-1.553-4.318-2.11-6.543-.294-1.176-.548-2.362-.76-3.555-.099-.555-.174-1.114-.27-1.669-.068-.393.197,1.611.064.474-.038-.328-.078-.657-.113-.986-.253-2.419-.338-4.855-.253-7.286.042-1.205.126-2.409.252-3.609.031-.289.067-.578.099-.867.113-1.022-.22,1.456-.059.439.107-.674.211-1.349.337-2.02.456-2.425,1.09-4.816,1.903-7.146.198-.567.406-1.13.624-1.689.093-.238.596-1.443.152-.401-.43,1.008.071-.153.18-.395.523-1.163,1.092-2.304,1.706-3.422.625-1.137,1.295-2.249,2.009-3.332.348-.528.707-1.049,1.075-1.562.217-.302.448-.595.661-.899.365-.522-.504.639-.451.578.139-.163.265-.338.399-.506,1.656-2.071,3.48-4.006,5.44-5.793.508-.464,1.026-.917,1.552-1.361.311-.262.625-.521.942-.776.178-.143,1.134-.895.362-.293s.203-.144.388-.28c.29-.213.582-.423.875-.63.646-.456,1.303-.896,1.966-1.328,2.628-1.709,3.966-5.396,2.153-8.209-1.692-2.625-5.395-3.983-8.209-2.153Z" fill="#694fa3" stroke-width="0"/>
            <path d="M36.375,113.666c-13.12,8.534-22.872,21.807-25.476,37.413-2.273,13.626.019,28.115,7.379,39.934,1.735,2.786,3.762,5.446,6.021,7.828.486.512.979,1.034,1.509,1.502.348.308.407.757-.301-.392-.051-.084-.511-1.411-.26-.481-.173-.643-.163-1.184-.012-1.845-.15.658-.295.082.228-.461-.207.215-.345.595-.493.851l-7.234,12.484-3.009,5.193c-.203.35-.397.69-.57,1.055-1.073,2.269-1.207,4.967.163,7.174,1.347,2.17,3.82,3.673,6.415,3.592,1.367-.043,2.552-.482,3.826-.888l5.524-1.762c8.748-2.791,17.495-5.581,26.243-8.372l.57-.182h-3.19c12.633,2.996,25.756,4.915,38.767,4.352,10.329-.447,20.466-2.457,29.892-6.761,7.158-3.268,13.806-8.174,18.739-14.333,4.893-6.108,8.468-13.122,10.225-20.777,1.782-7.765,1.81-15.642.538-23.478-1.216-7.491-3.934-14.805-7.667-21.401-3.853-6.807-8.973-13.055-15-18.05-6.769-5.609-14.425-9.859-22.825-12.498-8.877-2.789-18.443-3.667-27.7-2.88-11.857,1.008-23.145,4.37-34,9.161-2.814,1.242-5.579,2.591-8.302,4.022-2.782,1.463-3.854,5.57-2.153,8.209,1.826,2.832,5.233,3.717,8.209,2.153,2.058-1.082,4.141-2.118,6.251-3.094.998-.462,2.001-.911,3.01-1.346.06-.026.709-.321.717-.307-.014-.023-1.583.662-.48.206.512-.212,1.026-.42,1.54-.625,3.835-1.523,7.752-2.844,11.739-3.91,1.827-.489,3.669-.924,5.522-1.301,1.809-.367,3.672-.536,5.47-.931-.275.06-1.737.224-.752.104.21-.026.42-.052.63-.077.486-.057.973-.11,1.46-.159.857-.085,1.715-.157,2.575-.214,1.706-.113,3.415-.17,5.124-.165,1.619.004,3.238.063,4.853.179.82.059,1.639.132,2.456.221.373.04.745.086,1.118.131.963.115-.672-.073-.856-.117.207.05.432.06.643.091,3.006.442,5.982,1.094,8.893,1.964,1.419.424,2.823.899,4.208,1.425.322.122.642.247.962.375.159.064.318.129.477.193.923.373-.46-.178-.723-.309.658.326,1.352.589,2.017.901,2.54,1.192,4.995,2.564,7.341,4.103,1.163.763,2.282,1.582,3.401,2.407.642.473-1.322-1.039-.7-.542.127.101.255.2.382.301.275.218.548.438.819.661.54.444,1.072.897,1.596,1.359,2.013,1.777,3.907,3.69,5.665,5.72.431.498.854,1.003,1.269,1.514.199.245.394.493.59.739.598.752-.384-.446-.504-.655.089.154.226.296.333.438.785,1.044,1.537,2.112,2.254,3.204,1.449,2.206,2.755,4.506,3.908,6.881.28.578.552,1.159.814,1.746.126.281.245.564.37.845.321.721-.661-1.599-.365-.868.067.166.137.331.205.496.49,1.203.941,2.423,1.353,3.655.807,2.417,1.461,4.886,1.951,7.387.125.639.239,1.279.343,1.922.048.296.091.592.136.888.182,1.198-.227-1.837-.064-.484.151,1.257.271,2.516.343,3.78.14,2.479.112,4.967-.095,7.441-.053.633-.121,1.263-.194,1.894-.153,1.326.231-1.584.081-.581-.047.313-.092.626-.142.938-.197,1.222-.44,2.438-.73,3.642-.575,2.392-1.38,4.683-2.266,6.974-.144.373.732-1.695.378-.897-.059.133-.116.267-.175.4-.128.289-.258.576-.392.862-.268.573-.548,1.14-.84,1.701-.564,1.084-1.173,2.144-1.826,3.177-.673,1.066-1.402,2.089-2.152,3.101-.519.701.824-1.045.574-.742-.095.115-.185.235-.278.352-.203.254-.408.506-.616.755-.419.502-.85.994-1.291,1.477-.879.961-1.8,1.883-2.759,2.764-.478.439-.966.868-1.463,1.287-.241.203-.484.403-.728.601-.123.099-.248.197-.371.296-.765.618.864-.655.65-.499-2.271,1.652-4.575,3.193-7.065,4.503-1.284.676-2.602,1.266-3.922,1.866-.356.162,1.65-.681.777-.329-.166.067-.331.136-.497.203-.391.157-.783.311-1.177.459-.716.271-1.437.527-2.162.771-3.112,1.044-6.304,1.84-9.532,2.427-.885.161-1.773.306-2.663.437-.209.031-.418.058-.627.089-.396.06,1.774-.227.752-.102-.462.057-.924.114-1.387.166-1.879.209-3.764.355-5.653.446-4.064.195-8.139.133-12.198-.13-2.229-.145-4.455-.351-6.674-.61-.541-.063-1.081-.131-1.621-.199-1.125-.141.906.127.503.07-.321-.046-.642-.089-.962-.134-1.213-.174-2.424-.362-3.632-.565-2.425-.407-4.84-.87-7.244-1.384-2.419-.516-5.157-1.553-7.59-.888-5.938,1.622-11.782,3.759-17.645,5.629l-10.97,3.5-3.755,1.198c-.53.169-1.16.28-1.659.529-.008.004-.018.004-.026.008-.002.001,4.461,1.206,4.463,1.207.002.002.725,5.638.728,5.634.036-.045.054-.104.087-.151.209-.296.371-.641.553-.955l2.293-3.958,6.004-10.362,1.943-3.353c1.585-2.736,2.04-5.845.788-8.81-1.115-2.642-3.582-4.466-5.38-6.653-.162-.198-.32-.4-.482-.598-.214-.262.955,1.264.233.297-.335-.45-.662-.906-.979-1.369-.618-.9-1.201-1.823-1.751-2.766-.558-.957-1.081-1.935-1.57-2.929-.257-.523-.504-1.05-.742-1.582-.1-.223-.284-.502-.325-.743-.024-.14.568,1.394.343.808-.065-.169-.137-.335-.204-.504-.85-2.13-1.553-4.318-2.11-6.543-.294-1.176-.548-2.362-.76-3.555-.099-.555-.174-1.114-.27-1.669-.068-.393.197,1.611.064.474-.038-.328-.078-.657-.113-.986-.253-2.419-.338-4.855-.253-7.286.042-1.205.126-2.409.252-3.609.031-.289.067-.578.099-.867.113-1.022-.22,1.456-.059.439.107-.674.211-1.349.337-2.02.456-2.425,1.09-4.816,1.903-7.146.198-.567.406-1.13.624-1.689.093-.238.596-1.443.152-.401-.43,1.008.071-.153.18-.395.523-1.163,1.092-2.304,1.706-3.422.625-1.137,1.295-2.249,2.009-3.332.348-.528.707-1.049,1.075-1.562.217-.302.448-.595.661-.899.365-.522-.504.639-.451.578.139-.163.265-.338.399-.506,1.656-2.071,3.48-4.006,5.44-5.793.508-.464,1.026-.917,1.552-1.361.311-.262.625-.521.942-.776.178-.143,1.134-.895.362-.293s.203-.144.388-.28c.29-.213.582-.423.875-.63.646-.456,1.303-.896,1.966-1.328,2.628-1.709,3.966-5.396,2.153-8.209-1.692-2.625-5.395-3.983-8.209-2.153Z" fill="#eaddff" stroke-width="0"/>
          </g>
        </g>
        <g clip-path="url(#clippath-1)">
          <g>
            <path d="M85.274,102.838c-3.491,11.141-6.982,22.282-10.473,33.423l-2.395,7.644c-.544,1.735-1.093,3.429-1.357,5.24-1.028,7.034.81,13.744,5.25,19.293,3.455,4.318,8.208,6.622,13.367,8.239s10.298,2.394,15.642.949c6.172-1.669,11.725-5.937,14.784-11.573,2.325-4.284,3.461-9.431,4.91-14.052,3.532-11.272,7.158-22.52,10.598-33.82,1.863-6.12,1.1-12.726-1.849-18.368s-8.191-9.699-14.172-11.626c-4.019-1.295-8.064-2.619-12.357-2.358-6.397.388-12.75,3.171-16.953,8.106-2.275,2.671-3.91,5.557-4.995,8.904-.968,2.987,1.128,6.683,4.191,7.381,3.289.749,6.344-.992,7.381-4.191.109-.335.232-.664.345-.998.409-1.205-.624,1.287-.063.154.254-.513.51-1.02.802-1.513.266-.449.752-.93.931-1.412l-.532.679c.138-.175.28-.348.425-.518.288-.339.59-.667.902-.983.39-.395.809-.754,1.22-1.126.906-.821-1.183.808-.171.123.183-.124.359-.255.543-.378.549-.368,1.118-.705,1.703-1.011.195-.102.392-.201.591-.295,1.47-.702-.906.287.087-.039,1.115-.366,2.229-.599,3.361-.891.787-.203-1.634.141-.437.061.335-.022.668-.056,1.003-.07.676-.028,1.353-.018,2.027.03.58.042,1.34.4-.235-.064.269.079.574.094.851.149.631.126,1.251.289,1.866.476.496.151.989.31,1.483.465l2.344.734c.165.052.331.102.496.155.231.074.456.148.685.229.22.078.438.161.655.248-.896-.387-1.056-.45-.479-.19,1.017.528,1.943,1.157,2.925,1.733-1.404-.824-.543-.433-.161-.107.254.216.502.44.744.67.483.46.918.958,1.365,1.452.787.868-.64-.972-.222-.304.145.232.323.448.476.676.337.503.648,1.023.934,1.557.13.243.254.488.373.736.285.597.171,1.174-.079-.221.111.62.456,1.271.622,1.885.145.536.244,1.078.359,1.621.259,1.221-.117-1.522-.034-.273.022.335.057.668.07,1.003.023.562.021,1.126-.009,1.688-.017.324-.107.698-.083,1.019-.116-1.587.123-.828.011-.234-.286,1.512-.807,2.982-1.266,4.449l-2.26,7.211-6.388,20.387c-1.361,4.344-2.71,8.692-4.084,13.032-.022.069-.043.138-.065.206-.108.336-.232.665-.345.998-.182.536-.446.388.207-.468-.424.557-.665,1.363-1.034,1.973-.147.242-.298.48-.456.714-.288.427-.998,1.01.144-.126-.39.388-.714.862-1.095,1.262-.422.443-.879.841-1.326,1.257-.383.357-.978.518.311-.212-.376.213-.719.52-1.085.756-.463.298-.939.575-1.427.83-.293.153-.593.29-.89.435-.869.425.442-.21.521-.219-.604.069-1.287.46-1.885.622-.638.172-1.323.223-1.95.414,1.568-.476.865-.106.268-.059-.223.018-.446.031-.67.041-.676.028-1.353.019-2.027-.03-.192-.014-.479-.079-.68-.062,1.469-.125.905.137.234.011-.689-.13-1.366-.306-2.036-.51-1.303-.397-2.601-.813-3.9-1.222-.146-.046-.293-.09-.439-.138-.28-.09-.558-.183-.833-.284-.618-.227-.665-.592.304.146-.469-.358-1.162-.56-1.68-.861-.245-.142-.487-.289-.725-.443-.384-.248-1.559-1.265-.156-.042-.843-.735-1.673-1.45-2.412-2.296-.352-.403-.68-1.2.104.185-.159-.28-.394-.54-.574-.809-.368-.549-.705-1.118-1.011-1.703-.153-.293-.29-.593-.435-.89-.239-.49.014-.623.219.521-.112-.625-.454-1.264-.622-1.885-.145-.536-.246-1.078-.359-1.621-.255-1.222.113,1.522.034.273-.021-.335-.056-.668-.07-1.003-.028-.676-.018-1.353.03-2.027.016-.225.055-.455.062-.68-.055,1.776-.105.732-.011.234.134-.708.317-1.401.527-2.089.125-.41.257-.819.385-1.228l1.945-6.206c3.652-11.653,7.303-23.306,10.955-34.959l.252-.803c.939-2.996-1.107-6.678-4.191-7.381-3.264-.743-6.376.983-7.381,4.191Z" fill="#396660" stroke-width="0"/>
            <path d="M81.298,99.438c-3.491,11.141-6.982,22.282-10.473,33.423l-2.395,7.644c-.544,1.735-1.093,3.429-1.357,5.24-1.028,7.034.81,13.744,5.25,19.293,3.455,4.318,8.208,6.622,13.367,8.239s10.298,2.394,15.642.949c6.172-1.669,11.725-5.937,14.784-11.573,2.325-4.284,3.461-9.431,4.91-14.052,3.532-11.272,7.158-22.52,10.598-33.82,1.863-6.12,1.1-12.726-1.849-18.368s-8.191-9.699-14.172-11.626c-4.019-1.295-8.064-2.619-12.357-2.358-6.397.388-12.75,3.171-16.953,8.106-2.275,2.671-3.91,5.557-4.995,8.904-.968,2.987,1.128,6.683,4.191,7.381,3.289.749,6.344-.992,7.381-4.191.109-.335.232-.664.345-.998.409-1.205-.624,1.287-.063.154.254-.513.51-1.02.802-1.513.266-.449.752-.93.931-1.412l-.532.679c.138-.175.28-.348.425-.518.288-.339.59-.667.902-.983.39-.395.809-.754,1.22-1.126.906-.821-1.183.808-.171.123.183-.124.359-.255.543-.378.549-.368,1.118-.705,1.703-1.011.195-.102.392-.201.591-.295,1.47-.702-.906.287.087-.039,1.115-.366,2.229-.599,3.361-.891.787-.203-1.634.141-.437.061.335-.022.668-.056,1.003-.07.676-.028,1.353-.018,2.027.03.58.042,1.34.4-.235-.064.269.079.574.094.851.149.631.126,1.251.289,1.866.476.496.151.989.31,1.483.465l2.344.734c.165.052.331.102.496.155.231.074.456.148.685.229.22.078.438.161.655.248-.896-.387-1.056-.45-.479-.19,1.017.528,1.943,1.157,2.925,1.733-1.404-.824-.543-.433-.161-.107.254.216.502.44.744.67.483.46.918.958,1.365,1.452.787.868-.64-.972-.222-.304.145.232.323.448.476.676.337.503.648,1.023.934,1.557.13.243.254.488.373.736.285.597.171,1.174-.079-.221.111.62.456,1.271.622,1.885.145.536.244,1.078.359,1.621.259,1.221-.117-1.522-.034-.273.022.335.057.668.07,1.003.023.562.021,1.126-.009,1.688-.017.324-.107.698-.083,1.019-.116-1.587.123-.828.011-.234-.286,1.512-.807,2.982-1.266,4.449l-2.26,7.211-6.388,20.387c-1.361,4.344-2.71,8.692-4.084,13.032-.022.069-.043.138-.065.206-.108.336-.232.665-.345.998-.182.536-.446.388.207-.468-.424.557-.665,1.363-1.034,1.973-.147.242-.298.48-.456.714-.288.427-.998,1.01.144-.126-.39.388-.714.862-1.095,1.262-.422.443-.879.841-1.326,1.257-.383.357-.978.518.311-.212-.376.213-.719.52-1.085.756-.463.298-.939.575-1.427.83-.293.153-.593.29-.89.435-.869.425.442-.21.521-.219-.604.069-1.287.46-1.885.622-.638.172-1.323.223-1.95.414,1.568-.476.865-.106.268-.059-.223.018-.446.031-.67.041-.676.028-1.353.019-2.027-.03-.192-.014-.479-.079-.68-.062,1.469-.125.905.137.234.011-.689-.13-1.366-.306-2.036-.51-1.303-.397-2.601-.813-3.9-1.222-.146-.046-.293-.09-.439-.138-.28-.09-.558-.183-.833-.284-.618-.227-.665-.592.304.146-.469-.358-1.162-.56-1.68-.861-.245-.142-.487-.289-.725-.443-.384-.248-1.559-1.265-.156-.042-.843-.735-1.673-1.45-2.412-2.296-.352-.403-.68-1.2.104.185-.159-.28-.394-.54-.574-.809-.368-.549-.705-1.118-1.011-1.703-.153-.293-.29-.593-.435-.89-.239-.49.014-.623.219.521-.112-.625-.454-1.264-.622-1.885-.145-.536-.246-1.078-.359-1.621-.255-1.222.113,1.522.034.273-.021-.335-.056-.668-.07-1.003-.028-.676-.018-1.353.03-2.027.016-.225.055-.455.062-.68-.055,1.776-.105.732-.011.234.134-.708.317-1.401.527-2.089.125-.41.257-.819.385-1.228l1.945-6.206c3.652-11.653,7.303-23.306,10.955-34.959l.252-.803c.939-2.996-1.107-6.678-4.191-7.381-3.264-.743-6.376.983-7.381,4.191Z" fill="#bcece4" stroke-width="0"/>
          </g>
        </g>
      </g>
    </g>
  </g>
</svg>